<svg width="99" height="31" viewBox="0 0 99 31" fill="none" xmlns="http://www.w3.org/2000/svg">
<path d="M57.3923 29.9928C56.2015 29.9928 55.1298 29.7476 54.1771 29.2573C53.2385 28.7529 52.503 28.0595 51.9706 27.1769C51.4383 26.2943 51.1721 25.2926 51.1721 24.1718C51.1721 23.051 51.4383 22.0494 51.9706 21.1668C52.503 20.2842 53.2385 19.5977 54.1771 19.1073C55.1298 18.603 56.2015 18.3508 57.3923 18.3508C58.5832 18.3508 59.6479 18.603 60.5865 19.1073C61.5252 19.5977 62.2607 20.2842 62.793 21.1668C63.3254 22.0494 63.5916 23.051 63.5916 24.1718C63.5916 25.2926 63.3254 26.2943 62.793 27.1769C62.2607 28.0595 61.5252 28.7529 60.5865 29.2573C59.6479 29.7476 58.5832 29.9928 57.3923 29.9928ZM57.3923 27.303C58.2329 27.303 58.9194 27.0228 59.4517 26.4624C59.9981 25.888 60.2713 25.1245 60.2713 24.1718C60.2713 23.2192 59.9981 22.4626 59.4517 21.9023C58.9194 21.3279 58.2329 21.0407 57.3923 21.0407C56.5518 21.0407 55.8583 21.3279 55.3119 21.9023C54.7655 22.4626 54.4924 23.2192 54.4924 24.1718C54.4924 25.1245 54.7655 25.888 55.3119 26.4624C55.8583 27.0228 56.5518 27.303 57.3923 27.303Z" fill="#06A9B3"/>
<path d="M80.2617 18.3508C81.6767 18.3508 82.7975 18.7711 83.624 19.6117C84.4646 20.4383 84.8849 21.6851 84.8849 23.3523V29.8247H81.6067V23.8566C81.6067 22.96 81.4175 22.2945 81.0393 21.8602C80.675 21.4119 80.1497 21.1878 79.4632 21.1878C78.6927 21.1878 78.0832 21.4399 77.6349 21.9443C77.1866 22.4346 76.9625 23.1701 76.9625 24.1508V29.8247H73.6842V23.8566C73.6842 22.0774 72.9697 21.1878 71.5408 21.1878C70.7843 21.1878 70.1818 21.4399 69.7335 21.9443C69.2852 22.4346 69.0611 23.1701 69.0611 24.1508V29.8247H65.7828V18.5189H68.914V19.8218C69.3343 19.3455 69.8456 18.9813 70.448 18.7291C71.0644 18.4769 71.7369 18.3508 72.4654 18.3508C73.2639 18.3508 73.9854 18.5119 74.6299 18.8342C75.2743 19.1424 75.7927 19.5977 76.1849 20.2001C76.6473 19.6117 77.2287 19.1564 77.9291 18.8342C78.6436 18.5119 79.4212 18.3508 80.2617 18.3508Z" fill="#06A9B3"/>
<path d="M93.6413 27.366C94.2297 27.366 94.7481 27.2819 95.1964 27.1138C95.6587 26.9317 96.086 26.6515 96.4783 26.2733L98.2225 28.1645C97.1577 29.3834 95.6027 29.9928 93.5573 29.9928C92.2824 29.9928 91.1546 29.7476 90.174 29.2573C89.1933 28.7529 88.4368 28.0595 87.9044 27.1769C87.372 26.2943 87.1059 25.2926 87.1059 24.1718C87.1059 23.0651 87.365 22.0704 87.8834 21.1878C88.4158 20.2912 89.1372 19.5977 90.0479 19.1073C90.9725 18.603 92.0092 18.3508 93.158 18.3508C94.2367 18.3508 95.2174 18.582 96.1 19.0443C96.9826 19.4926 97.6831 20.1511 98.2015 21.0197C98.7338 21.8742 99 22.8899 99 24.0667L90.6363 25.6848C90.8744 26.2452 91.2457 26.6655 91.75 26.9457C92.2684 27.2259 92.8988 27.366 93.6413 27.366ZM93.158 20.8305C92.3314 20.8305 91.659 21.0967 91.1406 21.6291C90.6223 22.1614 90.3491 22.8969 90.3211 23.8356L95.8268 22.7638C95.6727 22.1754 95.3575 21.7061 94.8812 21.3559C94.4049 21.0056 93.8305 20.8305 93.158 20.8305Z" fill="#06A9B3"/>
<path fill-rule="evenodd" clip-rule="evenodd" d="M48.764 10.1077V29.8244H45.3597V23.7932H38.7752V29.8244H35.2728V10.2459L15.4771 14.205L14.7902 10.7707L36.6336 6.40199C36.7591 6.3734 36.8898 6.35831 37.024 6.35831C37.9833 6.35831 38.7624 7.12968 38.775 8.086C38.7752 8.09828 38.7752 8.11054 38.7752 8.12278V20.9143H45.3597V0H48.764V6.55039L87.2393 13.3904L86.6262 16.8388L48.764 10.1077Z" fill="#FFB257"/>
<path d="M6.74562 15C8.10455 15 9.28836 15.2662 10.297 15.7985C11.3057 16.3309 12.0903 17.1154 12.6507 18.1522C13.211 19.1889 13.4912 20.4427 13.4912 21.9137V29.9622H10.0869V26.4318H3.3623V29.9622H0V21.9137C0 20.4427 0.280192 19.1889 0.840575 18.1522C1.40096 17.1154 2.1855 16.3309 3.19419 15.7985C4.20288 15.2662 5.38669 15 6.74562 15ZM10.0869 23.7V21.5985C10.0869 20.3797 9.7857 19.4621 9.18329 18.8456C8.58087 18.2152 7.76131 17.9 6.7246 17.9C5.67388 17.9 4.84732 18.2152 4.24491 18.8456C3.6565 19.4621 3.3623 20.3797 3.3623 21.5985V23.7H10.0869Z" fill="#06A9B3"/>
<path d="M20.676 30.1304C19.4011 30.1304 18.4065 29.7941 17.692 29.1217C16.9775 28.4352 16.6202 27.4685 16.6202 26.2217V15.1309H19.8985V26.0326C19.8985 26.5089 20.0176 26.8801 20.2557 27.1463C20.5079 27.3985 20.8581 27.5246 21.3065 27.5246C21.4746 27.5246 21.6427 27.5036 21.8108 27.4615C21.9929 27.4195 22.133 27.3705 22.2311 27.3144L22.3782 29.8572C21.8318 30.0393 21.2644 30.1304 20.676 30.1304Z" fill="#06A9B3"/>
<path d="M30.7963 29.4159C30.474 29.654 30.0748 29.8362 29.5984 29.9622C29.1361 30.0743 28.6528 30.1304 28.1484 30.1304C26.7895 30.1304 25.7458 29.7871 25.0173 29.1007C24.2888 28.4142 23.9245 27.4055 23.9245 26.0746V16.1558H27.2028V18.9087H29.9977V21.4304H27.2028V26.0326C27.2028 26.5089 27.3219 26.8801 27.56 27.1463C27.7982 27.3985 28.1414 27.5246 28.5897 27.5246C29.0941 27.5246 29.5424 27.3845 29.9347 27.1043L30.7963 29.4159Z" fill="#06A9B3"/>
</svg>
